<mxfile host="app.diagrams.net" modified="2021-02-28T00:31:43.791Z" agent="5.0 (Windows NT 10.0; Win64; x64) AppleWebKit/537.36 (KHTML, like Gecko) Chrome/88.0.4324.182 Safari/537.36 Edg/88.0.705.74" etag="KtClSa2EbMLkS57DTxFT" version="14.4.3" type="github">
  <diagram id="Y6XvZMA8rTonoBp7yUq-" name="Page-1">
    <mxGraphModel dx="865" dy="483" grid="1" gridSize="10" guides="1" tooltips="1" connect="1" arrows="1" fold="1" page="1" pageScale="1" pageWidth="850" pageHeight="1100" math="0" shadow="0">
      <root>
        <mxCell id="0" />
        <mxCell id="1" parent="0" />
        <mxCell id="xfcsWRvKEEw7Y-oFfEDo-10" style="edgeStyle=orthogonalEdgeStyle;rounded=0;orthogonalLoop=1;jettySize=auto;html=1;exitX=0.5;exitY=1;exitDx=0;exitDy=0;entryX=0.5;entryY=0;entryDx=0;entryDy=0;" edge="1" parent="1" source="xfcsWRvKEEw7Y-oFfEDo-3" target="xfcsWRvKEEw7Y-oFfEDo-6">
          <mxGeometry relative="1" as="geometry" />
        </mxCell>
        <mxCell id="xfcsWRvKEEw7Y-oFfEDo-31" style="edgeStyle=orthogonalEdgeStyle;rounded=0;orthogonalLoop=1;jettySize=auto;html=1;exitX=0.5;exitY=0;exitDx=0;exitDy=0;entryX=0.5;entryY=0;entryDx=0;entryDy=0;" edge="1" parent="1" source="xfcsWRvKEEw7Y-oFfEDo-30" target="xfcsWRvKEEw7Y-oFfEDo-3">
          <mxGeometry relative="1" as="geometry" />
        </mxCell>
        <mxCell id="xfcsWRvKEEw7Y-oFfEDo-3" value="idle" style="rounded=0;whiteSpace=wrap;html=1;" vertex="1" parent="1">
          <mxGeometry x="330" y="230" width="120" height="30" as="geometry" />
        </mxCell>
        <mxCell id="xfcsWRvKEEw7Y-oFfEDo-11" style="edgeStyle=orthogonalEdgeStyle;rounded=0;orthogonalLoop=1;jettySize=auto;html=1;exitX=0.5;exitY=1;exitDx=0;exitDy=0;entryX=0.5;entryY=0;entryDx=0;entryDy=0;" edge="1" parent="1" source="xfcsWRvKEEw7Y-oFfEDo-4" target="xfcsWRvKEEw7Y-oFfEDo-7">
          <mxGeometry relative="1" as="geometry" />
        </mxCell>
        <mxCell id="xfcsWRvKEEw7Y-oFfEDo-4" value="" style="rounded=0;whiteSpace=wrap;html=1;" vertex="1" parent="1">
          <mxGeometry x="330" y="360" width="120" height="55" as="geometry" />
        </mxCell>
        <mxCell id="xfcsWRvKEEw7Y-oFfEDo-14" style="edgeStyle=orthogonalEdgeStyle;rounded=0;orthogonalLoop=1;jettySize=auto;html=1;exitX=0.5;exitY=1;exitDx=0;exitDy=0;entryX=0.5;entryY=0;entryDx=0;entryDy=0;" edge="1" parent="1" source="xfcsWRvKEEw7Y-oFfEDo-5" target="xfcsWRvKEEw7Y-oFfEDo-8">
          <mxGeometry relative="1" as="geometry" />
        </mxCell>
        <mxCell id="xfcsWRvKEEw7Y-oFfEDo-5" value="wait" style="rounded=0;whiteSpace=wrap;html=1;" vertex="1" parent="1">
          <mxGeometry x="330" y="510" width="120" height="30" as="geometry" />
        </mxCell>
        <mxCell id="xfcsWRvKEEw7Y-oFfEDo-9" style="edgeStyle=orthogonalEdgeStyle;rounded=0;orthogonalLoop=1;jettySize=auto;html=1;exitX=0.5;exitY=1;exitDx=0;exitDy=0;entryX=0.5;entryY=0;entryDx=0;entryDy=0;" edge="1" parent="1" source="xfcsWRvKEEw7Y-oFfEDo-6" target="xfcsWRvKEEw7Y-oFfEDo-4">
          <mxGeometry relative="1" as="geometry" />
        </mxCell>
        <mxCell id="xfcsWRvKEEw7Y-oFfEDo-28" style="edgeStyle=orthogonalEdgeStyle;rounded=0;orthogonalLoop=1;jettySize=auto;html=1;exitX=1;exitY=0.5;exitDx=0;exitDy=0;entryX=0.75;entryY=0;entryDx=0;entryDy=0;" edge="1" parent="1" source="xfcsWRvKEEw7Y-oFfEDo-6" target="xfcsWRvKEEw7Y-oFfEDo-3">
          <mxGeometry relative="1" as="geometry">
            <Array as="points">
              <mxPoint x="480" y="305" />
              <mxPoint x="480" y="210" />
              <mxPoint x="420" y="210" />
            </Array>
          </mxGeometry>
        </mxCell>
        <mxCell id="xfcsWRvKEEw7Y-oFfEDo-6" value="go" style="rhombus;whiteSpace=wrap;html=1;" vertex="1" parent="1">
          <mxGeometry x="350" y="280" width="80" height="50" as="geometry" />
        </mxCell>
        <mxCell id="xfcsWRvKEEw7Y-oFfEDo-12" style="edgeStyle=orthogonalEdgeStyle;rounded=0;orthogonalLoop=1;jettySize=auto;html=1;exitX=0.5;exitY=1;exitDx=0;exitDy=0;" edge="1" parent="1" source="xfcsWRvKEEw7Y-oFfEDo-7" target="xfcsWRvKEEw7Y-oFfEDo-5">
          <mxGeometry relative="1" as="geometry" />
        </mxCell>
        <mxCell id="xfcsWRvKEEw7Y-oFfEDo-29" style="edgeStyle=orthogonalEdgeStyle;rounded=0;orthogonalLoop=1;jettySize=auto;html=1;exitX=1;exitY=0.5;exitDx=0;exitDy=0;" edge="1" parent="1" source="xfcsWRvKEEw7Y-oFfEDo-7" target="xfcsWRvKEEw7Y-oFfEDo-30">
          <mxGeometry relative="1" as="geometry">
            <mxPoint x="640" y="320" as="targetPoint" />
          </mxGeometry>
        </mxCell>
        <mxCell id="xfcsWRvKEEw7Y-oFfEDo-7" value="GT12" style="rhombus;whiteSpace=wrap;html=1;" vertex="1" parent="1">
          <mxGeometry x="350" y="440" width="80" height="40" as="geometry" />
        </mxCell>
        <mxCell id="xfcsWRvKEEw7Y-oFfEDo-25" style="edgeStyle=orthogonalEdgeStyle;rounded=0;orthogonalLoop=1;jettySize=auto;html=1;exitX=1;exitY=0.5;exitDx=0;exitDy=0;entryX=0.5;entryY=0;entryDx=0;entryDy=0;" edge="1" parent="1" source="xfcsWRvKEEw7Y-oFfEDo-8" target="xfcsWRvKEEw7Y-oFfEDo-22">
          <mxGeometry relative="1" as="geometry" />
        </mxCell>
        <mxCell id="xfcsWRvKEEw7Y-oFfEDo-8" value="GT" style="rhombus;whiteSpace=wrap;html=1;" vertex="1" parent="1">
          <mxGeometry x="350" y="560" width="80" height="50" as="geometry" />
        </mxCell>
        <mxCell id="xfcsWRvKEEw7Y-oFfEDo-23" style="edgeStyle=orthogonalEdgeStyle;rounded=0;orthogonalLoop=1;jettySize=auto;html=1;exitX=0;exitY=0.5;exitDx=0;exitDy=0;entryX=0.5;entryY=0;entryDx=0;entryDy=0;" edge="1" parent="1" source="xfcsWRvKEEw7Y-oFfEDo-8" target="xfcsWRvKEEw7Y-oFfEDo-21">
          <mxGeometry relative="1" as="geometry" />
        </mxCell>
        <mxCell id="xfcsWRvKEEw7Y-oFfEDo-27" style="edgeStyle=orthogonalEdgeStyle;rounded=0;orthogonalLoop=1;jettySize=auto;html=1;exitX=0.5;exitY=1;exitDx=0;exitDy=0;entryX=0.25;entryY=0;entryDx=0;entryDy=0;" edge="1" parent="1" source="xfcsWRvKEEw7Y-oFfEDo-21" target="xfcsWRvKEEw7Y-oFfEDo-3">
          <mxGeometry relative="1" as="geometry">
            <Array as="points">
              <mxPoint x="230" y="670" />
              <mxPoint x="140" y="670" />
              <mxPoint x="140" y="210" />
              <mxPoint x="360" y="210" />
            </Array>
          </mxGeometry>
        </mxCell>
        <mxCell id="xfcsWRvKEEw7Y-oFfEDo-21" value="out: oe, done" style="rounded=1;whiteSpace=wrap;html=1;" vertex="1" parent="1">
          <mxGeometry x="170" y="620" width="120" height="30" as="geometry" />
        </mxCell>
        <mxCell id="xfcsWRvKEEw7Y-oFfEDo-26" style="edgeStyle=orthogonalEdgeStyle;rounded=0;orthogonalLoop=1;jettySize=auto;html=1;exitX=0.5;exitY=1;exitDx=0;exitDy=0;entryX=0.75;entryY=0;entryDx=0;entryDy=0;" edge="1" parent="1" source="xfcsWRvKEEw7Y-oFfEDo-22" target="xfcsWRvKEEw7Y-oFfEDo-5">
          <mxGeometry relative="1" as="geometry">
            <Array as="points">
              <mxPoint x="550" y="675" />
              <mxPoint x="640" y="675" />
              <mxPoint x="640" y="490" />
              <mxPoint x="420" y="490" />
            </Array>
          </mxGeometry>
        </mxCell>
        <mxCell id="xfcsWRvKEEw7Y-oFfEDo-22" value="reg&amp;lt;-reg*cnt&lt;br&gt;cnt&amp;lt;-cnt-1" style="rounded=1;whiteSpace=wrap;html=1;" vertex="1" parent="1">
          <mxGeometry x="490" y="620" width="120" height="35" as="geometry" />
        </mxCell>
        <mxCell id="xfcsWRvKEEw7Y-oFfEDo-30" value="err" style="rounded=0;whiteSpace=wrap;html=1;" vertex="1" parent="1">
          <mxGeometry x="580" y="310" width="120" height="40" as="geometry" />
        </mxCell>
        <mxCell id="xfcsWRvKEEw7Y-oFfEDo-32" value="s0" style="text;html=1;strokeColor=none;fillColor=none;align=center;verticalAlign=middle;whiteSpace=wrap;rounded=0;" vertex="1" parent="1">
          <mxGeometry x="290" y="210" width="40" height="20" as="geometry" />
        </mxCell>
        <mxCell id="xfcsWRvKEEw7Y-oFfEDo-33" value="s1" style="text;html=1;strokeColor=none;fillColor=none;align=center;verticalAlign=middle;whiteSpace=wrap;rounded=0;" vertex="1" parent="1">
          <mxGeometry x="290" y="340" width="40" height="20" as="geometry" />
        </mxCell>
        <mxCell id="xfcsWRvKEEw7Y-oFfEDo-35" value="s2" style="text;html=1;strokeColor=none;fillColor=none;align=center;verticalAlign=middle;whiteSpace=wrap;rounded=0;" vertex="1" parent="1">
          <mxGeometry x="290" y="430" width="40" height="20" as="geometry" />
        </mxCell>
        <mxCell id="xfcsWRvKEEw7Y-oFfEDo-37" value="s3" style="text;html=1;strokeColor=none;fillColor=none;align=center;verticalAlign=middle;whiteSpace=wrap;rounded=0;" vertex="1" parent="1">
          <mxGeometry x="540" y="280" width="40" height="20" as="geometry" />
        </mxCell>
        <mxCell id="xfcsWRvKEEw7Y-oFfEDo-38" value="cnt&amp;lt;-n" style="text;html=1;strokeColor=none;fillColor=none;align=center;verticalAlign=middle;whiteSpace=wrap;rounded=0;" vertex="1" parent="1">
          <mxGeometry x="370" y="360" width="40" height="20" as="geometry" />
        </mxCell>
        <mxCell id="xfcsWRvKEEw7Y-oFfEDo-39" value="reg&amp;lt;-1" style="text;html=1;strokeColor=none;fillColor=none;align=center;verticalAlign=middle;whiteSpace=wrap;rounded=0;" vertex="1" parent="1">
          <mxGeometry x="370" y="390" width="40" height="20" as="geometry" />
        </mxCell>
      </root>
    </mxGraphModel>
  </diagram>
</mxfile>
